<?xml version="1.0" encoding="UTF-8" standalone="no"?>
<!-- Generator: Adobe Illustrator 15.1.0, SVG Export Plug-In . SVG Version: 6.00 Build 0)  -->

<svg
   xmlns:dc="http://purl.org/dc/elements/1.1/"
   xmlns:cc="http://creativecommons.org/ns#"
   xmlns:rdf="http://www.w3.org/1999/02/22-rdf-syntax-ns#"
   xmlns:svg="http://www.w3.org/2000/svg"
   xmlns="http://www.w3.org/2000/svg"
   xmlns:sodipodi="http://sodipodi.sourceforge.net/DTD/sodipodi-0.dtd"
   xmlns:inkscape="http://www.inkscape.org/namespaces/inkscape"
   version="1.1"
   id="Layer_1"
   x="0px"
   y="0px"
   width="100px"
   height="100px"
   viewBox="0 0 100 100"
   enable-background="new 0 0 100 100"
   xml:space="preserve"
   inkscape:version="0.91 r13725"
   sodipodi:docname="Cloud-Hail.svg"><metadata
     id="metadata9"><rdf:RDF><cc:Work
         rdf:about=""><dc:format>image/svg+xml</dc:format><dc:type
           rdf:resource="http://purl.org/dc/dcmitype/StillImage" /></cc:Work></rdf:RDF></metadata><defs
     id="defs7" /><sodipodi:namedview
     pagecolor="#ffffff"
     bordercolor="#666666"
     borderopacity="1"
     objecttolerance="10"
     gridtolerance="10"
     guidetolerance="10"
     inkscape:pageopacity="0"
     inkscape:pageshadow="2"
     inkscape:window-width="640"
     inkscape:window-height="480"
     id="namedview5"
     showgrid="false"
     inkscape:zoom="2.36"
     inkscape:cx="50"
     inkscape:cy="50"
     inkscape:window-x="0"
     inkscape:window-y="340"
     inkscape:window-maximized="0"
     inkscape:current-layer="Layer_1" /><path
     fill-rule="evenodd"
     clip-rule="evenodd"
     d="M63.999,64.941v-4.381c2.389-1.383,3.999-3.961,3.999-6.92  c0-4.417-3.581-7.999-7.998-7.999c-1.601,0-3.084,0.48-4.334,1.291c-1.231-5.317-5.974-9.29-11.665-9.29  c-6.626,0-11.998,5.372-11.998,11.998c0,3.55,1.55,6.728,3.999,8.925v4.916c-4.776-2.768-7.998-7.922-7.998-13.841  c0-8.835,7.162-15.997,15.997-15.997c6.004,0,11.229,3.311,13.966,8.203c0.663-0.113,1.336-0.205,2.033-0.205  c6.626,0,11.998,5.372,11.998,11.999C71.998,58.863,68.656,63.293,63.999,64.941z M42.002,65.639c-1.104,0-1-0.895-1-1.998v-8  c0-1.104-0.104-2,1-2s1,0.896,1,2v8C43.002,64.744,43.106,65.639,42.002,65.639z M42.002,69.639c1.104,0,1.999,0.896,1.999,2  c0,1.105-0.895,2-1.999,2s-2-0.895-2-2C40.002,70.535,40.897,69.639,42.002,69.639z M50.001,69.639c-1.104,0-1-0.895-1-2v-7.998  c0-1.105-0.104-2,1-2s1,0.895,1,2v7.998C51.001,68.744,51.105,69.639,50.001,69.639z M50.001,73.639c1.104,0,1.999,0.895,1.999,2  c0,1.104-0.895,2-1.999,2s-2-0.896-2-2C48.001,74.533,48.896,73.639,50.001,73.639z M58,65.639c-1.104,0-1-0.895-1-1.998v-8  c0-1.104-0.104-2,1-2s1,0.896,1,2v8C59,64.744,59.104,65.639,58,65.639z M58,69.639c1.104,0,2,0.896,2,2c0,1.105-0.896,2-2,2  s-2-0.895-2-2C56,70.535,56.896,69.639,58,69.639z"
     id="path3"
     style="fill:#ffffff" /></svg>