<?xml version="1.0" encoding="UTF-8" standalone="no"?>
<!-- Generator: Adobe Illustrator 15.1.0, SVG Export Plug-In . SVG Version: 6.00 Build 0)  -->

<svg
   xmlns:dc="http://purl.org/dc/elements/1.1/"
   xmlns:cc="http://creativecommons.org/ns#"
   xmlns:rdf="http://www.w3.org/1999/02/22-rdf-syntax-ns#"
   xmlns:svg="http://www.w3.org/2000/svg"
   xmlns="http://www.w3.org/2000/svg"
   xmlns:sodipodi="http://sodipodi.sourceforge.net/DTD/sodipodi-0.dtd"
   xmlns:inkscape="http://www.inkscape.org/namespaces/inkscape"
   version="1.1"
   id="Layer_1"
   x="0px"
   y="0px"
   width="100px"
   height="100px"
   viewBox="0 0 100 100"
   enable-background="new 0 0 100 100"
   xml:space="preserve"
   inkscape:version="0.91 r13725"
   sodipodi:docname="Cloud-Fog.svg"><metadata
     id="metadata9"><rdf:RDF><cc:Work
         rdf:about=""><dc:format>image/svg+xml</dc:format><dc:type
           rdf:resource="http://purl.org/dc/dcmitype/StillImage" /></cc:Work></rdf:RDF></metadata><defs
     id="defs7" /><sodipodi:namedview
     pagecolor="#ffffff"
     bordercolor="#666666"
     borderopacity="1"
     objecttolerance="10"
     gridtolerance="10"
     guidetolerance="10"
     inkscape:pageopacity="0"
     inkscape:pageshadow="2"
     inkscape:window-width="640"
     inkscape:window-height="480"
     id="namedview5"
     showgrid="false"
     inkscape:zoom="2.36"
     inkscape:cx="50"
     inkscape:cy="50"
     inkscape:window-x="0"
     inkscape:window-y="340"
     inkscape:window-maximized="0"
     inkscape:current-layer="Layer_1" /><path
     fill-rule="evenodd"
     clip-rule="evenodd"
     d="M69.998,65.641H30.003c-1.104,0-2-0.896-2-2c0-1.105,0.896-2,2-2h39.995  c1.104,0,2,0.895,2,2C71.998,64.744,71.103,65.641,69.998,65.641z M69.998,57.641H30.003c-1.104,0-2-0.895-2-2c0-1.104,0.896-2,2-2  h39.995c1.104,0,2,0.896,2,2C71.998,56.746,71.103,57.641,69.998,57.641z M59.999,45.643c-1.601,0-3.083,0.48-4.333,1.291  c-1.232-5.317-5.974-9.291-11.665-9.291c-6.626,0-11.998,5.373-11.998,12h-4c0-8.835,7.163-15.999,15.998-15.999  c6.004,0,11.229,3.312,13.965,8.204c0.664-0.113,1.337-0.205,2.033-0.205c5.222,0,9.652,3.342,11.301,8h-4.381  C65.535,47.253,62.958,45.643,59.999,45.643z M30.003,69.639h39.995c1.104,0,2,0.896,2,2c0,1.105-0.896,2-2,2H30.003  c-1.104,0-2-0.895-2-2C28.003,70.535,28.898,69.639,30.003,69.639z"
     id="path3"
     style="fill:#ffffff" /></svg>