<?xml version="1.0" encoding="UTF-8" standalone="no"?>
<!-- Generator: Adobe Illustrator 15.1.0, SVG Export Plug-In . SVG Version: 6.00 Build 0)  -->

<svg
   xmlns:dc="http://purl.org/dc/elements/1.1/"
   xmlns:cc="http://creativecommons.org/ns#"
   xmlns:rdf="http://www.w3.org/1999/02/22-rdf-syntax-ns#"
   xmlns:svg="http://www.w3.org/2000/svg"
   xmlns="http://www.w3.org/2000/svg"
   xmlns:sodipodi="http://sodipodi.sourceforge.net/DTD/sodipodi-0.dtd"
   xmlns:inkscape="http://www.inkscape.org/namespaces/inkscape"
   version="1.1"
   id="Layer_1"
   x="0px"
   y="0px"
   width="100px"
   height="100px"
   viewBox="0 0 100 100"
   enable-background="new 0 0 100 100"
   xml:space="preserve"
   inkscape:version="0.91 r13725"
   sodipodi:docname="Sun.svg"><metadata
     id="metadata3399"><rdf:RDF><cc:Work
         rdf:about=""><dc:format>image/svg+xml</dc:format><dc:type
           rdf:resource="http://purl.org/dc/dcmitype/StillImage" /></cc:Work></rdf:RDF></metadata><defs
     id="defs3397" /><sodipodi:namedview
     pagecolor="#ffffff"
     bordercolor="#666666"
     borderopacity="1"
     objecttolerance="10"
     gridtolerance="10"
     guidetolerance="10"
     inkscape:pageopacity="0"
     inkscape:pageshadow="2"
     inkscape:window-width="2560"
     inkscape:window-height="1384"
     id="namedview3395"
     showgrid="false"
     inkscape:zoom="12.11"
     inkscape:cx="38.315442"
     inkscape:cy="50"
     inkscape:window-x="1920"
     inkscape:window-y="30"
     inkscape:window-maximized="1"
     inkscape:current-layer="Layer_1" /><path
     fill-rule="evenodd"
     clip-rule="evenodd"
     d="M71.997,51.999h-3.998c-1.105,0-2-0.895-2-1.999s0.895-2,2-2h3.998  c1.105,0,2,0.896,2,2S73.103,51.999,71.997,51.999z M64.142,38.688c-0.781,0.781-2.049,0.781-2.828,0  c-0.781-0.781-0.781-2.047,0-2.828l2.828-2.828c0.779-0.781,2.047-0.781,2.828,0c0.779,0.781,0.779,2.047,0,2.828L64.142,38.688z   M50.001,61.998c-6.627,0-12-5.372-12-11.998c0-6.627,5.372-11.999,12-11.999c6.627,0,11.998,5.372,11.998,11.999  C61.999,56.626,56.628,61.998,50.001,61.998z M50.001,42.001c-4.418,0-8,3.581-8,7.999c0,4.417,3.583,7.999,8,7.999  s7.998-3.582,7.998-7.999C57.999,45.582,54.419,42.001,50.001,42.001z M50.001,34.002c-1.105,0-2-0.896-2-2v-3.999  c0-1.104,0.895-2,2-2c1.104,0,2,0.896,2,2v3.999C52.001,33.106,51.104,34.002,50.001,34.002z M35.86,38.688l-2.828-2.828  c-0.781-0.781-0.781-2.047,0-2.828s2.047-0.781,2.828,0l2.828,2.828c0.781,0.781,0.781,2.047,0,2.828S36.641,39.469,35.86,38.688z   M34.002,50c0,1.104-0.896,1.999-2,1.999h-4c-1.104,0-1.999-0.895-1.999-1.999s0.896-2,1.999-2h4C33.107,48,34.002,48.896,34.002,50  z M35.86,61.312c0.781-0.78,2.047-0.78,2.828,0c0.781,0.781,0.781,2.048,0,2.828l-2.828,2.828c-0.781,0.781-2.047,0.781-2.828,0  c-0.781-0.78-0.781-2.047,0-2.828L35.86,61.312z M50.001,65.998c1.104,0,2,0.895,2,1.999v4c0,1.104-0.896,2-2,2  c-1.105,0-2-0.896-2-2v-4C48.001,66.893,48.896,65.998,50.001,65.998z M64.142,61.312l2.828,2.828c0.779,0.781,0.779,2.048,0,2.828  c-0.781,0.781-2.049,0.781-2.828,0l-2.828-2.828c-0.781-0.78-0.781-2.047,0-2.828C62.093,60.531,63.36,60.531,64.142,61.312z"
     id="path3393"
     style="fill:#ffffff" /></svg>